<svg width="16" height="21" viewBox="0 0 16 21" fill="none" xmlns="http://www.w3.org/2000/svg">
<path d="M8.9875 20.475C11.125 17.8418 16 11.4598 16 7.875C16 3.52734 12.4167 0 8 0C3.58333 0 0 3.52734 0 7.875C0 11.4598 4.875 17.8418 7.0125 20.475C7.525 21.1025 8.475 21.1025 8.9875 20.475ZM8 5.25C8.70724 5.25 9.38552 5.52656 9.88562 6.01884C10.3857 6.51113 10.6667 7.17881 10.6667 7.875C10.6667 8.57119 10.3857 9.23887 9.88562 9.73116C9.38552 10.2234 8.70724 10.5 8 10.5C7.29276 10.5 6.61448 10.2234 6.11438 9.73116C5.61428 9.23887 5.33333 8.57119 5.33333 7.875C5.33333 7.17881 5.61428 6.51113 6.11438 6.01884C6.61448 5.52656 7.29276 5.25 8 5.25Z" fill="#1E1863"/>
</svg>
