<svg width="20" height="20" viewBox="0 0 20 20" fill="none" xmlns="http://www.w3.org/2000/svg">
<path fill-rule="evenodd" clip-rule="evenodd" d="M20 10C20 15.5228 15.5228 20 10 20C4.47715 20 0 15.5228 0 10C0 5.86696 2.50735 2.31955 6.08391 0.795883C8.52952 1.7134 9.15046 2.39473 9.09091 3.18182C8.85584 4.38548 8.61221 4.41691 8.11486 4.48107C8.00016 4.49586 7.87197 4.5124 7.72727 4.54545C6.88655 4.16584 6.65885 3.83228 6.36364 3.18182C6.34365 3.77496 6.78465 5.01697 7.72727 5.45455C10.7441 5.32098 10.8951 3.80185 10 0C15.5228 0 20 4.47715 20 10ZM6.36364 14.4828C8.89383 16.6751 11.3789 16.6515 13.7931 14.4828L6.36364 14.4828Z" fill="#1E1863"/>
</svg>
