<svg width="439" height="187" viewBox="0 0 439 187" fill="none" xmlns="http://www.w3.org/2000/svg">
<path fill-rule="evenodd" clip-rule="evenodd" d="M48.9912 0H99.0088C99.262 7.22422 104.981 13 112 13C119.019 13 124.738 7.2242 124.991 0H203.009C203.262 7.2242 208.981 13 216 13C223.019 13 228.738 7.2242 228.991 0H317.009C317.262 7.22426 322.981 13 330 13C337.018 13 342.738 7.2242 342.991 0H383.009C383.262 7.22426 388.981 13 396 13C403.018 13 408.738 7.2242 408.991 0H429C434.523 0 439 4.47715 439 10V177C439 182.523 434.523 187 429 187H10C4.47715 187 0 182.523 0 177V10C0 4.47715 4.47715 0 10 0H23.0088C23.262 7.2242 28.9815 13 36 13C43.0185 13 48.738 7.2242 48.9912 0Z" fill="#D9D9D9"/>
</svg>
