<svg width="18" height="20" viewBox="0 0 18 20" fill="none" xmlns="http://www.w3.org/2000/svg">
<path d="M6.10714 0.9375C6.10714 0.417969 5.67723 0 5.14286 0C4.60848 0 4.17857 0.417969 4.17857 0.9375V2.5H2.57143C1.15313 2.5 0 3.62109 0 5V5.625V7.5V17.5C0 18.8789 1.15313 20 2.57143 20H15.4286C16.8469 20 18 18.8789 18 17.5V7.5V5.625V5C18 3.62109 16.8469 2.5 15.4286 2.5H13.8214V0.9375C13.8214 0.417969 13.3915 0 12.8571 0C12.3228 0 11.8929 0.417969 11.8929 0.9375V2.5H6.10714V0.9375ZM1.92857 7.5H5.14286V9.6875H1.92857V7.5ZM1.92857 11.5625H5.14286V14.0625H1.92857V11.5625ZM7.07143 11.5625H10.9286V14.0625H7.07143V11.5625ZM12.8571 11.5625H16.0714V14.0625H12.8571V11.5625ZM16.0714 9.6875H12.8571V7.5H16.0714V9.6875ZM16.0714 15.9375V17.5C16.0714 17.8438 15.7821 18.125 15.4286 18.125H12.8571V15.9375H16.0714ZM10.9286 15.9375V18.125H7.07143V15.9375H10.9286ZM5.14286 15.9375V18.125H2.57143C2.21786 18.125 1.92857 17.8438 1.92857 17.5V15.9375H5.14286ZM10.9286 9.6875H7.07143V7.5H10.9286V9.6875Z" fill="#1E1863"/>
</svg>
