<svg width="339" height="127" viewBox="0 0 339 127" fill="none" xmlns="http://www.w3.org/2000/svg">
<path d="M136 78.4309V72.9809H140.189L144.701 36.5941L149.052 32.9074H142.768V27.4574H163.715L163.876 78.4309H158.236V33.0546H150.642L145.023 78.4309H136Z" fill="#1E1863"/>
<path d="M170.805 32.9074V27.4574L179.989 27.4574V60.6382L190.463 27.4574H199.003V78.4309H193.041L193.202 37.075L180.312 78.4309H174.35V36.5941L177.895 32.9074H170.805Z" fill="#1E1863"/>
<path d="M205.932 32.9074V27.2971H215.116V72.9809H227.201V27.2971H233.002V72.9809H236.547V82.1176H230.907V78.5912H209.477V36.5941L213.183 32.9074H205.932Z" fill="#1E1863"/>
<path d="M240.736 33.0676V27.2971H265.712V38.3574H259.911V33.0676H250.082V49.5779H262.006V55.8294H250.082V72.9809H260.072V67.5309H265.712V78.5912H244.281V36.5941L247.987 33.0676H240.736Z" fill="#1E1863"/>
<path d="M272.802 32.9074V27.2971H282.147V60.7985L292.621 27.2971H301V78.5912H295.199V36.7544L282.147 78.5912H276.347V36.5941L280.053 32.9074H272.802Z" fill="#1E1863"/>
<path d="M282.953 23.6103L279.408 18H295.36L291.654 23.6103H282.953Z" fill="#1E1863"/>
<path d="M143.573 97.1853V95.2618H136.161V114.657H138.9V97.1853H143.573Z" fill="#1E1863"/>
<path d="M220.595 114.657H217.694V97.1853H214.633V95.2618H223.656V97.1853H220.595V114.657Z" fill="#1E1863"/>
<path d="M252.177 114.657H250.404V95.2618H252.499L252.66 108.887L258.622 95.2618H260.233L260.395 114.657H257.978V101.193L252.177 114.657Z" fill="#1E1863"/>
<path d="M263.456 114.657V95.2618H266.195V112.734H271.674V95.2618H274.413V112.894H276.347V118.024H273.93V114.657H263.456Z" fill="#1E1863"/>
<path d="M281.181 95.2618H278.441V114.657H281.181V105.2H282.147L286.176 114.657H288.754L284.564 104.559L288.432 95.2618H285.854L282.147 103.757H281.181V95.2618Z" fill="#1E1863"/>
<path fill-rule="evenodd" clip-rule="evenodd" d="M181.923 112.894V118.184H184.018V114.657H193.847V118.184H196.103V112.894H194.33V95.2618H186.273L185.468 106.162C185.023 109.79 184.517 111.367 182.89 112.894H181.923ZM187.885 106.162C187.601 109.989 187.192 111.657 185.468 112.734H191.591V97.3456H188.529L187.885 106.162Z" fill="#1E1863"/>
<path fill-rule="evenodd" clip-rule="evenodd" d="M197.23 114.657H199.809L200.775 109.849H204.643L205.609 114.657H208.188L203.998 95.2618H201.42L197.23 114.657ZM204.159 107.925H201.098L202.709 99.2691L204.159 107.925Z" fill="#1E1863"/>
<path fill-rule="evenodd" clip-rule="evenodd" d="M289.721 114.657H292.138L293.266 109.688H297.133L298.1 114.657H300.678L296.488 95.2618H293.91L289.721 114.657ZM295.199 99.2691L296.811 107.925H293.588L295.199 99.2691Z" fill="#1E1863"/>
<path fill-rule="evenodd" clip-rule="evenodd" d="M155.658 100.231V109.688C155.494 112.929 153.361 115.211 150.502 114.978C147.359 115.173 145.067 112.733 145.185 109.528V100.231C145.085 97.0622 147.369 94.9316 150.502 95.1015C153.528 95.1015 155.658 97.221 155.658 100.231ZM153.08 110.252V99.8277C153.08 98.3684 151.969 97.1853 150.502 97.1853C149.035 97.1853 147.924 98.4461 147.924 99.9055V110.329C147.924 111.789 149.035 112.894 150.502 112.894C151.969 112.894 153.08 111.711 153.08 110.252Z" fill="#1E1863"/>
<path fill-rule="evenodd" clip-rule="evenodd" d="M180.316 100.08V109.537C180.152 112.778 178.019 115.06 175.16 114.827C172.017 115.023 169.725 112.583 169.842 109.377V100.08C169.743 96.9114 172.027 94.7807 175.16 94.9507C178.185 94.9507 180.316 97.0701 180.316 100.08ZM177.738 110.101V99.6769C177.738 98.2175 176.627 97.0345 175.16 97.0345C173.693 97.0345 172.581 98.2952 172.581 99.7546V110.179C172.581 111.638 173.693 112.743 175.16 112.743C176.627 112.743 177.738 111.56 177.738 110.101Z" fill="#1E1863"/>
<path fill-rule="evenodd" clip-rule="evenodd" d="M158.236 94.9412H163.715C166.207 94.9412 168.227 96.9506 168.227 99.4294V101.674C168.227 103.798 166.495 105.681 164.359 105.681H161.137V114.657H158.236V94.9412ZM163.393 97.1853H161.137V103.757H163.393C164.638 103.757 165.648 102.913 165.648 101.674V99.4294C165.648 98.19 164.638 97.1853 163.393 97.1853Z" fill="#1E1863"/>
<path fill-rule="evenodd" clip-rule="evenodd" d="M247.347 100.08V109.537C247.183 112.778 245.05 115.06 242.191 114.827C239.048 115.023 236.756 112.583 236.873 109.377V100.08C236.774 96.9114 239.058 94.7807 242.191 94.9507C245.217 94.9507 247.347 97.0701 247.347 100.08ZM244.769 110.101V99.6769C244.769 98.2175 243.658 97.0345 242.191 97.0345C240.724 97.0345 239.613 98.2952 239.613 99.7546V110.179C239.613 111.638 240.724 112.743 242.191 112.743C243.658 112.743 244.769 111.56 244.769 110.101Z" fill="#1E1863"/>
<path fill-rule="evenodd" clip-rule="evenodd" d="M225.59 95.2618H231.068C233.56 95.2618 235.58 97.2712 235.58 99.75V101.994C235.58 104.119 233.849 106.001 231.713 106.001H228.49V114.978H225.59V95.2618ZM230.746 97.5059H228.49V104.078H230.746C231.992 104.078 233.002 103.234 233.002 101.994V99.75C233.002 98.5106 231.992 97.5059 230.746 97.5059Z" fill="#1E1863"/>
<path d="M78.5559 105.267V106.767H81.5559V105.267H78.5559ZM80.0559 18.7778H81.5559V17.2778H80.0559V18.7778ZM62.0695 18.7778V17.2778H60.5695V18.7778H62.0695ZM61.9106 105.267H60.4106V106.767H61.9106V105.267ZM65.5084 106.767H67.0084V103.767H65.5084V106.767ZM65.5084 99.4556H67.0084V96.4556H65.5084V99.4556ZM61.9106 90.6444H60.4106H61.9106ZM65.5084 92.1444H67.0084V89.1444H65.5084V92.1444ZM65.5084 84.9889H67.0084V81.9889H65.5084V84.9889ZM65.8212 77.6778H67.3212V74.6778H65.8212V77.6778ZM61.9106 68.8667L60.4106 68.8652V68.8667H61.9106ZM65.5084 70.3667H67.0084V67.3667H65.5084V70.3667ZM61.9173 62.0222L60.4174 62.0049L60.4173 62.0128L60.4173 62.0208L61.9173 62.0222ZM65.5084 63.5222H67.0084V60.5222H65.5084V63.5222ZM65.5084 56.2111H67.0084V53.2111H65.5084V56.2111ZM65.5084 49.0556H67.0084V46.0556H65.5084V49.0556ZM65.5084 41.7444H67.0084V38.7444H65.5084V41.7444ZM65.5084 34.7444H67.0084V31.7444H65.5084V34.7444ZM29.2179 106.456H30.7179V103.456H29.2179V106.456ZM16.8603 104.956H15.3603C15.3603 105.784 16.0319 106.456 16.8603 106.456V104.956ZM16.8603 51.1333V49.6333C16.0319 49.6333 15.3603 50.3049 15.3603 51.1333H16.8603ZM29.3743 52.6333H30.8743V49.6333H29.3743V52.6333ZM7.69556 105.414L7.68691 106.914L10.6869 106.931L10.6955 105.431L7.69556 105.414ZM9.50838 51.1333L11.0084 51.142C11.0085 51.1191 11.0081 51.0962 11.0072 51.0733L9.50838 51.1333ZM12.9497 44.1333V42.6333C12.8093 42.6333 12.6696 42.6531 12.5347 42.6919L12.9497 44.1333ZM29.3743 45.6333L30.8743 45.6333V42.6333L29.3743 42.6333V45.6333ZM87.095 103.456H85.595V106.456H87.095V103.456ZM99.7496 104.956V106.456C100.578 106.456 101.25 105.784 101.25 104.956H99.7496ZM99.7496 51.1333H101.25C101.25 50.3049 100.578 49.6333 99.7496 49.6333V51.1333ZM87.095 49.6333H85.595V52.6333H87.095V49.6333ZM105.617 105.43L105.626 106.93L108.626 106.914L108.617 105.414L105.617 105.43ZM106.817 51.1333L105.318 51.0756C105.317 51.0976 105.316 51.1196 105.317 51.1416L106.817 51.1333ZM103.509 44.1333L103.939 42.6964C103.799 42.6546 103.654 42.6333 103.509 42.6333L103.509 44.1333ZM87.095 42.6333H85.595V45.6333H87.095V42.6333ZM34.9134 104.956V106.456H37.9134V104.956H34.9134ZM36.4134 33.4L35.0544 32.765C34.9615 32.9638 34.9134 33.1806 34.9134 33.4H36.4134ZM43.6089 18L44.9679 17.365C44.7213 16.8373 44.1915 16.5 43.6089 16.5C43.0264 16.5 42.4966 16.8373 42.25 17.365L43.6089 18ZM50.8045 33.4H52.3045C52.3045 33.1806 52.2563 32.9638 52.1634 32.765L50.8045 33.4ZM49.3045 104.956V106.456H52.3045V104.956H49.3045ZM42.109 104.947L42.1008 106.447L45.1007 106.464L45.1089 104.964L42.109 104.947ZM71.1397 23.9111V22.4111C70.3112 22.4111 69.6397 23.0827 69.6397 23.9111H71.1397ZM74.2682 23.9111H75.7682C75.7682 23.0827 75.0966 22.4111 74.2682 22.4111V23.9111ZM74.2682 27.6444V29.1444C75.0966 29.1444 75.7682 28.4729 75.7682 27.6444H74.2682ZM71.1397 27.6444H69.6397C69.6397 28.4729 70.3112 29.1444 71.1397 29.1444V27.6444ZM9.19553 123L8.13783 124.064C8.41889 124.343 8.79915 124.5 9.19553 124.5V123ZM107.274 123V124.5C107.688 124.5 108.083 124.329 108.367 124.027L107.274 123ZM114 115.844L115.093 116.872C115.354 116.594 115.5 116.226 115.5 115.844H114ZM114 112.111H115.5C115.5 111.283 114.828 110.611 114 110.611V112.111ZM70.8268 112.111V110.611C70.4304 110.611 70.0502 110.768 69.7691 111.048L70.8268 112.111ZM67.0726 115.844V117.344C67.469 117.344 67.8493 117.188 68.1303 116.908L67.0726 115.844ZM49.2402 115.844L48.2044 116.929C48.4835 117.196 48.8544 117.344 49.2402 117.344V115.844ZM45.3296 112.111L46.3654 111.026C46.0863 110.76 45.7154 110.611 45.3296 110.611V112.111ZM2 112.111V110.611C1.17157 110.611 0.5 111.283 0.5 112.111H2ZM2 115.844H0.5C0.5 116.244 0.659185 116.627 0.942298 116.908L2 115.844ZM81.5559 105.267V18.7778H78.5559V105.267H81.5559ZM80.0559 17.2778H62.0695V20.2778H80.0559V17.2778ZM61.9106 106.767H65.5084V103.767H61.9106V106.767ZM60.4106 97.9556V105.267H63.4106V97.9556H60.4106ZM61.9106 99.4556H65.5084V96.4556H61.9106V99.4556ZM60.4106 90.6444L60.4106 97.9556H63.4106L63.4106 90.6444H60.4106ZM61.9106 92.1444H65.5084V89.1444H61.9106V92.1444ZM60.4106 83.4889V90.6444H63.4106V83.4889H60.4106ZM61.9106 84.9889H65.5084V81.9889H61.9106V84.9889ZM60.4106 76.1778V83.4889H63.4106V76.1778H60.4106ZM61.9106 77.6778H65.8212V74.6778H61.9106V77.6778ZM60.4106 68.8667V76.1778H63.4106V68.8667H60.4106ZM61.9106 70.3667H65.5084V67.3667H61.9106V70.3667ZM60.4173 62.0208L60.4106 68.8652L63.4106 68.8681L63.4172 62.0237L60.4173 62.0208ZM61.9173 63.5222H65.5084V60.5222H61.9173V63.5222ZM60.5018 54.6938L60.4174 62.0049L63.4171 62.0395L63.5016 54.7284L60.5018 54.6938ZM62.0017 56.2111H65.5084V53.2111H62.0017V56.2111ZM60.5696 47.5413L60.5017 54.6969L63.5016 54.7253L63.5695 47.5698L60.5696 47.5413ZM62.0695 49.0556H65.5084V46.0556H62.0695V49.0556ZM60.5695 40.2444V47.5556H63.5695V40.2444H60.5695ZM62.0695 41.7444H65.5084V38.7444H62.0695V41.7444ZM60.5695 18.7778V33.2444H63.5695V18.7778H60.5695ZM60.5695 33.2444V40.2444H63.5695V33.2444H60.5695ZM62.0695 34.7444H65.5084V31.7444H62.0695V34.7444ZM29.2179 103.456H16.8603V106.456H29.2179V103.456ZM18.3603 104.956V51.1333H15.3603V104.956H18.3603ZM16.8603 52.6333H29.3743V49.6333H16.8603V52.6333ZM10.6955 105.431L11.0084 51.142L8.0084 51.1247L7.69556 105.414L10.6955 105.431ZM12.9497 45.6333L29.3743 45.6333V42.6333L12.9497 42.6333L12.9497 45.6333ZM11.0072 51.0733C10.9305 49.1599 11.0762 47.9147 11.4423 47.0915C11.7534 46.3919 12.2692 45.8902 13.3648 45.5748L12.5347 42.6919C10.7008 43.2199 9.41751 44.2614 8.70109 45.8725C8.03963 47.36 7.9294 49.193 8.00958 51.1934L11.0072 51.0733ZM87.095 106.456H99.7496V103.456H87.095V106.456ZM101.25 104.956V51.1333H98.2496V104.956H101.25ZM99.7496 49.6333H87.095V52.6333H99.7496V49.6333ZM108.617 105.414L108.317 51.125L105.317 51.1416L105.617 105.43L108.617 105.414ZM103.509 42.6333L87.095 42.6333V45.6333L103.509 45.6333L103.509 42.6333ZM108.315 51.1911C108.392 49.1934 108.286 47.3706 107.654 45.8924C106.969 44.2899 105.732 43.2335 103.939 42.6964L103.078 45.5702C104.101 45.8766 104.593 46.3634 104.896 47.0715C105.252 47.9039 105.392 49.1594 105.318 51.0756L108.315 51.1911ZM37.9134 104.956V33.4H34.9134V104.956H37.9134ZM37.7724 34.035L44.9679 18.635L42.25 17.365L35.0544 32.765L37.7724 34.035ZM42.25 18.635L49.4455 34.035L52.1634 32.765L44.9679 17.365L42.25 18.635ZM49.3045 33.4V104.956H52.3045V33.4H49.3045ZM50.8045 31.9H44V34.9H50.8045V31.9ZM44 31.9H36.4134V34.9H44V31.9ZM42.5 33.3918L42.109 104.947L45.1089 104.964L45.5 33.4082L42.5 33.3918ZM71.1397 25.4111H74.2682V22.4111H71.1397V25.4111ZM72.7682 23.9111V27.6444H75.7682V23.9111H72.7682ZM74.2682 26.1444H71.1397V29.1444H74.2682V26.1444ZM72.6397 27.6444V23.9111H69.6397V27.6444H72.6397ZM9.19553 124.5H107.274V121.5H9.19553V124.5ZM108.367 124.027L115.093 116.872L112.907 114.817L106.181 121.973L108.367 124.027ZM115.5 115.844V112.111H112.5V115.844H115.5ZM114 110.611H70.8268V113.611H114V110.611ZM69.7691 111.048L66.0149 114.781L68.1303 116.908L71.8845 113.175L69.7691 111.048ZM67.0726 114.344H49.2402V117.344H67.0726V114.344ZM50.276 114.759L46.3654 111.026L44.2938 113.196L48.2044 116.929L50.276 114.759ZM45.3296 110.611H2V113.611H45.3296V110.611ZM0.5 112.111V115.844H3.5V112.111H0.5ZM0.942298 116.908L8.13783 124.064L10.2532 121.936L3.0577 114.781L0.942298 116.908Z" fill="#1E1863"/>
</svg>
