<svg width="23" height="30" viewBox="0 0 23 30" fill="none" xmlns="http://www.w3.org/2000/svg">
<path fill-rule="evenodd" clip-rule="evenodd" d="M18.2475 3.86235C16.6231 2.73489 14.3637 3.10184 13.2037 4.68151L4.45621 16.5938C2.45474 19.3193 3.1037 23.1027 5.90637 25.048C7.62384 26.2401 9.75011 26.4644 11.5998 25.8321L11.5998 29.1041C9.06408 29.6563 6.30694 29.1965 4.02375 27.6117C-0.236837 24.6545 -1.22264 18.9073 1.81997 14.764L10.5675 2.85169C12.7686 -0.145793 17.0478 -0.840783 20.1301 1.29862C23.2124 3.43803 23.926 7.59858 21.7249 10.5961L13.3577 21.9904C11.998 23.842 9.35064 24.2719 7.44669 22.9504C5.54274 21.6289 5.10122 19.0549 6.46088 17.2033L11.5998 10.2052L11.5998 15.625L9.09712 19.0331C8.7786 19.4669 8.88327 20.0771 9.3293 20.3867C9.77533 20.6963 10.4029 20.5943 10.7215 20.1606L19.0886 8.76625C20.2486 7.18658 19.8718 4.98981 18.2475 3.86235ZM15.943 9.71049L11.9631 9.71048L13.3068 7.88067C13.8249 7.175 14.8405 7.01005 15.5662 7.51371C16.2918 8.01738 16.4612 9.00481 15.943 9.71049Z" fill="#1E1863"/>
</svg>
