<svg width="22" height="20" viewBox="0 0 22 20" fill="none" xmlns="http://www.w3.org/2000/svg">
<path d="M11 20C13.6522 20 16.1957 18.9464 18.0711 17.0711C19.9464 15.1957 21 12.6522 21 10C21 7.34784 19.9464 4.8043 18.0711 2.92893C16.1957 1.05357 13.6522 0 11 0C8.34784 0 5.8043 1.05357 3.92893 2.92893C2.05357 4.8043 1 7.34784 1 10C1 12.6522 2.05357 15.1957 3.92893 17.0711C5.8043 18.9464 8.34784 20 11 20Z" fill="#1E1863"/>
<path fill-rule="evenodd" clip-rule="evenodd" d="M0.824473 7.6931L4.33043 8.64781C5.59202 8.27601 6.60512 8.10319 7.63549 8.11208C8.66501 8.12096 9.69828 8.31122 10.9977 8.64875C12.3274 8.27837 13.3719 8.10454 14.4018 8.11261C15.4297 8.12067 16.429 8.30988 17.667 8.64853L21.1755 7.6931L21.3069 8.17553L17.9167 9.09873V12.5385C17.9167 12.6562 17.8346 12.7579 17.7197 12.7829C15.1062 13.3499 13.5708 13.2608 11.0026 12.7932C8.2852 13.3463 6.76114 13.4607 4.26748 12.7797C4.15875 12.75 4.08334 12.6513 4.08334 12.5385V9.09873L0.6931 8.17553L0.824473 7.6931ZM4.58334 9.09488V12.3467C6.82043 12.9328 8.24102 12.8376 10.75 12.3341V9.10124C9.52534 8.78803 8.56994 8.62016 7.63117 8.61206C6.69424 8.60398 5.76124 8.75502 4.58334 9.09488ZM11.25 9.09782V12.3297C13.612 12.7522 15.0558 12.8282 17.4167 12.3361V9.0987C16.2542 8.78605 15.3327 8.61992 14.3979 8.6126C13.4602 8.60525 12.4959 8.75762 11.25 9.09782Z" fill="#E6E6E6"/>
</svg>
