<svg width="42" height="42" viewBox="0 0 42 42" fill="none" xmlns="http://www.w3.org/2000/svg">
<g clip-path="url(#clip0_13_99)">
<path d="M21 42C26.5695 42 31.911 39.7875 35.8492 35.8492C39.7875 31.911 42 26.5695 42 21C42 15.4305 39.7875 10.089 35.8492 6.15076C31.911 2.21249 26.5695 0 21 0C15.4305 0 10.089 2.21249 6.15076 6.15076C2.21249 10.089 0 15.4305 0 21C0 26.5695 2.21249 31.911 6.15076 35.8492C10.089 39.7875 15.4305 42 21 42ZM14.3555 14.3555C15.1266 13.5844 16.3734 13.5844 17.1363 14.3555L20.9918 18.2109L24.8473 14.3555C25.6184 13.5844 26.8652 13.5844 27.6281 14.3555C28.391 15.1266 28.3992 16.3734 27.6281 17.1363L23.7727 20.9918L27.6281 24.8473C28.3992 25.6184 28.3992 26.8652 27.6281 27.6281C26.857 28.391 25.6102 28.3992 24.8473 27.6281L20.9918 23.7727L17.1363 27.6281C16.3652 28.3992 15.1184 28.3992 14.3555 27.6281C13.5926 26.857 13.5844 25.6102 14.3555 24.8473L18.2109 20.9918L14.3555 17.1363C13.5844 16.3652 13.5844 15.1184 14.3555 14.3555Z" fill="#E91818"/>
</g>
<defs>
<clipPath id="clip0_13_99">
<rect width="42" height="42" fill="white"/>
</clipPath>
</defs>
</svg>
